<?xml version="1.0" encoding="UTF-8" standalone="no"?>
<!DOCTYPE svg PUBLIC "-//W3C//DTD SVG 1.1//EN"
 "http://www.w3.org/Graphics/SVG/1.1/DTD/svg11.dtd">
<!-- Generated by graphviz version 2.43.0 (0)
 -->
<!-- Title: example1 Pages: 1 -->
<svg width="396pt" height="98pt"
 viewBox="0.00 0.00 395.87 98.00" xmlns="http://www.w3.org/2000/svg" xmlns:xlink="http://www.w3.org/1999/xlink">
<g id="graph0" class="graph" transform="scale(1 1) rotate(0) translate(4 94)">
<title>example1</title>
<polygon fill="white" stroke="transparent" points="-4,4 -4,-94 391.87,-94 391.87,4 -4,4"/>
<!-- common_h -->
<g id="node1" class="node">
<title>common_h</title>
<ellipse fill="none" stroke="black" cx="58.49" cy="-72" rx="58.49" ry="18"/>
<text text-anchor="middle" x="58.49" y="-68.3" font-family="Times,serif" font-size="14.00">common.h</text>
</g>
<!-- game_c -->
<g id="node3" class="node">
<title>game_c</title>
<ellipse fill="none" stroke="black" cx="197.19" cy="-45" rx="44.39" ry="18"/>
<text text-anchor="middle" x="197.19" y="-41.3" font-family="Times,serif" font-size="14.00">game.c</text>
</g>
<!-- common_h&#45;&gt;game_c -->
<g id="edge1" class="edge">
<title>common_h&#45;&gt;game_c</title>
<path fill="none" stroke="black" d="M108.07,-62.4C120.79,-59.89 134.5,-57.18 147.24,-54.67"/>
<polygon fill="black" stroke="black" points="148.07,-58.07 157.2,-52.7 146.71,-51.2 148.07,-58.07"/>
</g>
<!-- player_h -->
<g id="node2" class="node">
<title>player_h</title>
<ellipse fill="none" stroke="black" cx="58.49" cy="-18" rx="48.19" ry="18"/>
<text text-anchor="middle" x="58.49" y="-14.3" font-family="Times,serif" font-size="14.00">player.h</text>
</g>
<!-- player_h&#45;&gt;game_c -->
<g id="edge2" class="edge">
<title>player_h&#45;&gt;game_c</title>
<path fill="none" stroke="black" d="M101.25,-26.25C115.67,-29.1 131.95,-32.31 146.91,-35.27"/>
<polygon fill="black" stroke="black" points="146.53,-38.76 157.02,-37.26 147.89,-31.89 146.53,-38.76"/>
</g>
<!-- game_exe -->
<g id="node4" class="node">
<title>game_exe</title>
<ellipse fill="none" stroke="black" cx="332.63" cy="-45" rx="55.49" ry="18"/>
<text text-anchor="middle" x="332.63" y="-41.3" font-family="Times,serif" font-size="14.00">game.exe</text>
</g>
<!-- game_c&#45;&gt;game_exe -->
<g id="edge3" class="edge">
<title>game_c&#45;&gt;game_exe</title>
<path fill="none" stroke="black" d="M241.51,-45C249.71,-45 258.46,-45 267.15,-45"/>
<polygon fill="black" stroke="black" points="267.3,-48.5 277.3,-45 267.3,-41.5 267.3,-48.5"/>
</g>
</g>
</svg>
