<?xml version="1.0" encoding="UTF-8" standalone="no"?>
<!DOCTYPE svg PUBLIC "-//W3C//DTD SVG 1.1//EN"
 "http://www.w3.org/Graphics/SVG/1.1/DTD/svg11.dtd">
<!-- Generated by graphviz version 2.43.0 (0)
 -->
<!-- Title: example2 Pages: 1 -->
<svg width="354pt" height="332pt"
 viewBox="0.00 0.00 353.58 332.00" xmlns="http://www.w3.org/2000/svg" xmlns:xlink="http://www.w3.org/1999/xlink">
<g id="graph0" class="graph" transform="scale(1 1) rotate(0) translate(4 328)">
<title>example2</title>
<polygon fill="white" stroke="transparent" points="-4,4 -4,-328 349.58,-328 349.58,4 -4,4"/>
<!-- common_h -->
<g id="node1" class="node">
<title>common_h</title>
<ellipse fill="none" stroke="black" cx="224.61" cy="-306" rx="58.49" ry="18"/>
<text text-anchor="middle" x="224.61" y="-302.3" font-family="Times,serif" font-size="14.00">common.h</text>
</g>
<!-- game_c -->
<g id="node3" class="node">
<title>game_c</title>
<ellipse fill="none" stroke="black" cx="62.61" cy="-90" rx="44.39" ry="18"/>
<text text-anchor="middle" x="62.61" y="-86.3" font-family="Times,serif" font-size="14.00">game.c</text>
</g>
<!-- common_h&#45;&gt;game_c -->
<g id="edge7" class="edge">
<title>common_h&#45;&gt;game_c</title>
<path fill="none" stroke="black" d="M180.18,-294.09C127.78,-278.57 43.08,-244.56 5.61,-180 -2.42,-166.16 -0.78,-158.67 5.61,-144 11.11,-131.39 21.24,-120.43 31.46,-111.8"/>
<polygon fill="black" stroke="black" points="33.9,-114.33 39.59,-105.39 29.57,-108.83 33.9,-114.33"/>
</g>
<!-- levcomp_c -->
<g id="node5" class="node">
<title>levcomp_c</title>
<ellipse fill="none" stroke="black" cx="224.61" cy="-234" rx="84.49" ry="18"/>
<text text-anchor="middle" x="224.61" y="-230.3" font-family="Times,serif" font-size="14.00">level_compiler.c</text>
</g>
<!-- common_h&#45;&gt;levcomp_c -->
<g id="edge1" class="edge">
<title>common_h&#45;&gt;levcomp_c</title>
<path fill="none" stroke="black" d="M224.61,-287.7C224.61,-279.98 224.61,-270.71 224.61,-262.11"/>
<polygon fill="black" stroke="black" points="228.11,-262.1 224.61,-252.1 221.11,-262.1 228.11,-262.1"/>
</g>
<!-- levels_c -->
<g id="node7" class="node">
<title>levels_c</title>
<ellipse fill="none" stroke="black" cx="197.61" cy="-90" rx="45.49" ry="18"/>
<text text-anchor="middle" x="197.61" y="-86.3" font-family="Times,serif" font-size="14.00">levels.c</text>
</g>
<!-- common_h&#45;&gt;levels_c -->
<g id="edge5" class="edge">
<title>common_h&#45;&gt;levels_c</title>
<path fill="none" stroke="black" stroke-dasharray="5,2" d="M262.78,-292.33C282.2,-283.93 304.43,-270.9 317.61,-252 345.24,-212.39 356.66,-184.01 329.61,-144 311.98,-117.92 279.18,-104.67 250.69,-97.94"/>
<polygon fill="black" stroke="black" points="251.34,-94.5 240.82,-95.82 249.87,-101.35 251.34,-94.5"/>
</g>
<!-- player_h -->
<g id="node2" class="node">
<title>player_h</title>
<ellipse fill="none" stroke="black" cx="62.61" cy="-162" rx="48.19" ry="18"/>
<text text-anchor="middle" x="62.61" y="-158.3" font-family="Times,serif" font-size="14.00">player.h</text>
</g>
<!-- player_h&#45;&gt;game_c -->
<g id="edge8" class="edge">
<title>player_h&#45;&gt;game_c</title>
<path fill="none" stroke="black" d="M62.61,-143.7C62.61,-135.98 62.61,-126.71 62.61,-118.11"/>
<polygon fill="black" stroke="black" points="66.11,-118.1 62.61,-108.1 59.11,-118.1 66.11,-118.1"/>
</g>
<!-- player_h&#45;&gt;levels_c -->
<g id="edge4" class="edge">
<title>player_h&#45;&gt;levels_c</title>
<path fill="none" stroke="black" stroke-dasharray="5,2" d="M89.61,-147C110.44,-136.2 139.43,-121.17 162.14,-109.4"/>
<polygon fill="black" stroke="black" points="163.86,-112.44 171.13,-104.73 160.64,-106.23 163.86,-112.44"/>
</g>
<!-- game_exe -->
<g id="node4" class="node">
<title>game_exe</title>
<ellipse fill="none" stroke="black" cx="116.61" cy="-18" rx="55.49" ry="18"/>
<text text-anchor="middle" x="116.61" y="-14.3" font-family="Times,serif" font-size="14.00">game.exe</text>
</g>
<!-- game_c&#45;&gt;game_exe -->
<g id="edge9" class="edge">
<title>game_c&#45;&gt;game_exe</title>
<path fill="none" stroke="black" d="M75.41,-72.41C81.97,-63.91 90.1,-53.37 97.39,-43.91"/>
<polygon fill="black" stroke="black" points="100.2,-46.01 103.53,-35.96 94.65,-41.74 100.2,-46.01"/>
</g>
<!-- levcomp -->
<g id="node6" class="node">
<title>levcomp</title>
<ellipse fill="none" stroke="black" cx="224.61" cy="-162" rx="95.58" ry="18"/>
<text text-anchor="middle" x="224.61" y="-158.3" font-family="Times,serif" font-size="14.00">level_compiler.exe</text>
</g>
<!-- levcomp_c&#45;&gt;levcomp -->
<g id="edge2" class="edge">
<title>levcomp_c&#45;&gt;levcomp</title>
<path fill="none" stroke="black" d="M224.61,-215.7C224.61,-207.98 224.61,-198.71 224.61,-190.11"/>
<polygon fill="black" stroke="black" points="228.11,-190.1 224.61,-180.1 221.11,-190.1 228.11,-190.1"/>
</g>
<!-- levcomp&#45;&gt;levels_c -->
<g id="edge3" class="edge">
<title>levcomp&#45;&gt;levels_c</title>
<path fill="none" stroke="black" d="M217.94,-143.7C214.9,-135.81 211.23,-126.3 207.85,-117.55"/>
<polygon fill="black" stroke="black" points="211.07,-116.17 204.21,-108.1 204.54,-118.69 211.07,-116.17"/>
</g>
<!-- levels_c&#45;&gt;game_exe -->
<g id="edge6" class="edge">
<title>levels_c&#45;&gt;game_exe</title>
<path fill="none" stroke="black" d="M179.23,-73.12C168.54,-63.87 154.87,-52.07 143.04,-41.84"/>
<polygon fill="black" stroke="black" points="145.06,-38.95 135.2,-35.06 140.48,-44.25 145.06,-38.95"/>
</g>
</g>
</svg>
