<?xml version="1.0" encoding="UTF-8" standalone="no"?>
<!DOCTYPE svg PUBLIC "-//W3C//DTD SVG 1.1//EN"
 "http://www.w3.org/Graphics/SVG/1.1/DTD/svg11.dtd">
<!-- Generated by graphviz version 2.43.0 (0)
 -->
<!-- Title: example3 Pages: 1 -->
<svg width="152pt" height="404pt"
 viewBox="0.00 0.00 151.75 404.00" xmlns="http://www.w3.org/2000/svg" xmlns:xlink="http://www.w3.org/1999/xlink">
<g id="graph0" class="graph" transform="scale(1 1) rotate(0) translate(4 400)">
<title>example3</title>
<polygon fill="white" stroke="transparent" points="-4,4 -4,-400 147.75,-400 147.75,4 -4,4"/>
<!-- a_c -->
<g id="node1" class="node">
<title>a_c</title>
<ellipse fill="none" stroke="black" cx="35.75" cy="-378" rx="27" ry="18"/>
<text text-anchor="middle" x="35.75" y="-374.3" font-family="Times,serif" font-size="14.00">a.c</text>
</g>
<!-- a_exe -->
<g id="node2" class="node">
<title>a_exe</title>
<ellipse fill="none" stroke="black" cx="35.75" cy="-306" rx="35.19" ry="18"/>
<text text-anchor="middle" x="35.75" y="-302.3" font-family="Times,serif" font-size="14.00">a.exe</text>
</g>
<!-- a_c&#45;&gt;a_exe -->
<g id="edge1" class="edge">
<title>a_c&#45;&gt;a_exe</title>
<path fill="none" stroke="black" d="M35.75,-359.7C35.75,-351.98 35.75,-342.71 35.75,-334.11"/>
<polygon fill="black" stroke="black" points="39.25,-334.1 35.75,-324.1 32.25,-334.1 39.25,-334.1"/>
</g>
<!-- b_c -->
<g id="node3" class="node">
<title>b_c</title>
<ellipse fill="none" stroke="black" cx="35.75" cy="-234" rx="27" ry="18"/>
<text text-anchor="middle" x="35.75" y="-230.3" font-family="Times,serif" font-size="14.00">b.c</text>
</g>
<!-- a_exe&#45;&gt;b_c -->
<g id="edge2" class="edge">
<title>a_exe&#45;&gt;b_c</title>
<path fill="none" stroke="black" d="M35.75,-287.7C35.75,-279.98 35.75,-270.71 35.75,-262.11"/>
<polygon fill="black" stroke="black" points="39.25,-262.1 35.75,-252.1 32.25,-262.1 39.25,-262.1"/>
</g>
<!-- b_exe -->
<g id="node4" class="node">
<title>b_exe</title>
<ellipse fill="none" stroke="black" cx="35.75" cy="-162" rx="36" ry="18"/>
<text text-anchor="middle" x="35.75" y="-158.3" font-family="Times,serif" font-size="14.00">b.exe</text>
</g>
<!-- b_c&#45;&gt;b_exe -->
<g id="edge3" class="edge">
<title>b_c&#45;&gt;b_exe</title>
<path fill="none" stroke="black" d="M35.75,-215.7C35.75,-207.98 35.75,-198.71 35.75,-190.11"/>
<polygon fill="black" stroke="black" points="39.25,-190.1 35.75,-180.1 32.25,-190.1 39.25,-190.1"/>
</g>
<!-- c_c -->
<g id="node6" class="node">
<title>c_c</title>
<ellipse fill="none" stroke="black" cx="75.75" cy="-90" rx="27" ry="18"/>
<text text-anchor="middle" x="75.75" y="-86.3" font-family="Times,serif" font-size="14.00">c.c</text>
</g>
<!-- b_exe&#45;&gt;c_c -->
<g id="edge4" class="edge">
<title>b_exe&#45;&gt;c_c</title>
<path fill="none" stroke="black" d="M45.23,-144.41C50.08,-135.92 56.08,-125.41 61.48,-115.96"/>
<polygon fill="black" stroke="black" points="64.69,-117.41 66.61,-106.99 58.61,-113.93 64.69,-117.41"/>
</g>
<!-- c_h -->
<g id="node5" class="node">
<title>c_h</title>
<ellipse fill="none" stroke="black" cx="116.75" cy="-162" rx="27" ry="18"/>
<text text-anchor="middle" x="116.75" y="-158.3" font-family="Times,serif" font-size="14.00">c.h</text>
</g>
<!-- c_h&#45;&gt;c_c -->
<g id="edge6" class="edge">
<title>c_h&#45;&gt;c_c</title>
<path fill="none" stroke="black" d="M107.24,-144.76C102.22,-136.19 95.95,-125.49 90.33,-115.9"/>
<polygon fill="black" stroke="black" points="93.28,-114.01 85.2,-107.15 87.24,-117.55 93.28,-114.01"/>
</g>
<!-- c_exe -->
<g id="node7" class="node">
<title>c_exe</title>
<ellipse fill="none" stroke="black" cx="75.75" cy="-18" rx="34.39" ry="18"/>
<text text-anchor="middle" x="75.75" y="-14.3" font-family="Times,serif" font-size="14.00">c.exe</text>
</g>
<!-- c_c&#45;&gt;c_exe -->
<g id="edge5" class="edge">
<title>c_c&#45;&gt;c_exe</title>
<path fill="none" stroke="black" d="M75.75,-71.7C75.75,-63.98 75.75,-54.71 75.75,-46.11"/>
<polygon fill="black" stroke="black" points="79.25,-46.1 75.75,-36.1 72.25,-46.1 79.25,-46.1"/>
</g>
</g>
</svg>
